<?xml version="1.0" encoding="utf-8"?>
<!-- Generator: Adobe Illustrator 23.0.0, SVG Export Plug-In . SVG Version: 6.00 Build 0)  -->
<svg version="1.1" id="Layer_1" xmlns="http://www.w3.org/2000/svg" xmlns:xlink="http://www.w3.org/1999/xlink" x="0px" y="0px"
	 viewBox="0 0 100 100" style="enable-background:new 0 0 100 100;" xml:space="preserve">
<path d="M21,65.5c0-10.3,0-20.7,0-31c0.5-1.9,1.8-3,3.6-3.7c7.7-3.1,15.3-6.2,22.9-9.3c1.7-0.7,3.3-0.7,5,0c3.3,1.3,6.6,2.7,10,4
	c4.4,1.8,8.9,3.6,13.3,5.4c2.3,0.9,3.2,2.3,3.2,4.8c0,9.5,0,19.1,0,28.6c0,2.3-1,3.8-3.1,4.7c-1,0.4-2,0.8-3,1.2
	c-7.3,2.9-14.7,5.9-22,8.8c-0.6,0-1.2,0-1.8,0c-0.5-0.2-1.1-0.3-1.6-0.5c-7.6-3.1-15.3-6.2-22.9-9.3C22.8,68.5,21.5,67.4,21,65.5z
	 M47.6,73.3c0-0.3,0-0.5,0-0.7c0-8.4,0-16.8,0-25.3c0-0.5-0.2-0.7-0.6-0.9c-6.9-2.9-13.8-5.8-20.6-8.6c-0.1-0.1-0.3-0.1-0.5-0.2
	c0,0.3,0,0.4,0,0.6c0,8.5,0,17,0,25.5c0,0.5,0.1,0.7,0.6,0.9c5.7,2.3,11.4,4.6,17.1,6.9C44.8,72.2,46.1,72.7,47.6,73.3z M74.2,37.7
	c-0.2,0-0.2,0-0.3,0.1c-3,1.3-6,2.5-9,3.7c-0.4,0.1-0.4,0.4-0.4,0.7c0,2.5,0,5.1,0,7.6c0,1.5-1,2.6-2.4,2.6c-1.4,0-2.4-1.1-2.5-2.6
	c0-1.4,0-2.7,0-4.1c0-0.6,0-1.3,0-2c-0.2,0.1-0.4,0.2-0.6,0.2c-2,0.9-4.1,1.7-6.1,2.5c-0.4,0.2-0.6,0.4-0.6,0.8c0,8.4,0,16.8,0,25.3
	c0,0.2,0,0.4,0,0.6c0.2-0.1,0.4-0.1,0.5-0.2c6.9-2.8,13.8-5.6,20.7-8.4c0.4-0.2,0.4-0.4,0.4-0.7c0-8.5,0-17.1,0-25.6
	C74.2,38.1,74.2,38,74.2,37.7z M29.6,34c0.2,0.1,0.3,0.2,0.4,0.2c6.5,2.7,13.1,5.5,19.6,8.2c0.2,0.1,0.6,0.1,0.8,0
	c2.5-1,4.9-2.1,7.4-3.1c0.1-0.1,0.3-0.1,0.5-0.2c-0.2-0.1-0.3-0.2-0.4-0.2c-4.5-1.8-9-3.6-13.6-5.5c-2.1-0.9-4.2-1.7-6.3-2.6
	c-0.1-0.1-0.4,0-0.5,0c-1.2,0.5-2.3,0.9-3.5,1.4C32.5,32.8,31.1,33.4,29.6,34z M44.2,28.1c0.3,0.1,0.4,0.2,0.6,0.3
	c6,2.4,12,4.8,18,7.3c0.4,0.2,0.8,0.4,1.1,0.7c0.3,0.3,0.4,0.3,0.8,0.1c1.6-0.7,3.2-1.4,4.8-2c0.3-0.1,0.5-0.2,0.9-0.4
	c-0.2-0.1-0.2-0.1-0.3-0.1c-6.5-2.6-12.9-5.3-19.4-7.9c-0.4-0.2-0.9-0.1-1.4,0c-0.9,0.3-1.7,0.7-2.6,1
	C45.9,27.4,45.1,27.7,44.2,28.1z"/>
</svg>
